<svg width="25" height="22" viewBox="0 0 25 22" fill="none" xmlns="http://www.w3.org/2000/svg">
<g filter="url(#filter0_d_2_10)">
<rect x="1" y="1" width="22" height="19" rx="2" stroke="black" stroke-width="2"/>
<path d="M11.2841 12.3835V12.2386C11.2869 11.7415 11.331 11.3452 11.4162 11.0497C11.5043 10.7543 11.6321 10.5156 11.7997 10.3338C11.9673 10.152 12.169 9.98722 12.4048 9.83949C12.581 9.72585 12.7386 9.60795 12.8778 9.4858C13.017 9.36364 13.1278 9.22869 13.2102 9.08097C13.2926 8.9304 13.3338 8.76278 13.3338 8.57812C13.3338 8.3821 13.2869 8.21023 13.1932 8.0625C13.0994 7.91477 12.973 7.80114 12.8139 7.72159C12.6577 7.64205 12.4844 7.60227 12.294 7.60227C12.1094 7.60227 11.9347 7.64347 11.7699 7.72585C11.6051 7.8054 11.4702 7.92472 11.3651 8.08381C11.2599 8.24006 11.2031 8.43466 11.1946 8.66761H9.45597C9.47017 8.09943 9.60653 7.63068 9.86506 7.26136C10.1236 6.8892 10.4659 6.61222 10.892 6.4304C11.3182 6.24574 11.7884 6.15341 12.3026 6.15341C12.8679 6.15341 13.3679 6.24716 13.8026 6.43466C14.2372 6.61932 14.5781 6.88778 14.8253 7.24006C15.0724 7.59233 15.196 8.01705 15.196 8.5142C15.196 8.84659 15.1406 9.14205 15.0298 9.40057C14.9219 9.65625 14.7699 9.88352 14.5739 10.0824C14.3778 10.2784 14.1463 10.456 13.8793 10.6151C13.6548 10.7486 13.4702 10.8878 13.3253 11.0327C13.1832 11.1776 13.0767 11.3452 13.0057 11.5355C12.9375 11.7259 12.902 11.9602 12.8991 12.2386V12.3835H11.2841ZM12.1278 15.1108C11.8438 15.1108 11.6009 15.0114 11.3991 14.8125C11.2003 14.6108 11.1023 14.3693 11.1051 14.0881C11.1023 13.8097 11.2003 13.571 11.3991 13.3722C11.6009 13.1733 11.8438 13.0739 12.1278 13.0739C12.3977 13.0739 12.6349 13.1733 12.8395 13.3722C13.044 13.571 13.1477 13.8097 13.1506 14.0881C13.1477 14.2756 13.098 14.4474 13.0014 14.6037C12.9077 14.7571 12.7841 14.8807 12.6307 14.9744C12.4773 15.0653 12.3097 15.1108 12.1278 15.1108Z" fill="black"/>
</g>
<defs>
<filter id="filter0_d_2_10" x="0" y="0" width="25" height="22" filterUnits="userSpaceOnUse" color-interpolation-filters="sRGB">
<feFlood flood-opacity="0" result="BackgroundImageFix"/>
<feColorMatrix in="SourceAlpha" type="matrix" values="0 0 0 0 0 0 0 0 0 0 0 0 0 0 0 0 0 0 127 0" result="hardAlpha"/>
<feOffset dx="1" dy="1"/>
<feComposite in2="hardAlpha" operator="out"/>
<feColorMatrix type="matrix" values="0 0 0 0 0 0 0 0 0 0 0 0 0 0 0 0 0 0 1 0"/>
<feBlend mode="normal" in2="BackgroundImageFix" result="effect1_dropShadow_2_10"/>
<feBlend mode="normal" in="SourceGraphic" in2="effect1_dropShadow_2_10" result="shape"/>
</filter>
</defs>
</svg>
