<svg width="24" height="19" viewBox="0 0 24 19" fill="none" xmlns="http://www.w3.org/2000/svg">
<path d="M1.36298 0C0.610229 0 0 0.610229 0 1.36298V1.36298C0 2.11574 0.610229 2.72597 1.36298 2.72597H22.637C23.3898 2.72597 24 2.11574 24 1.36298V1.36298C24 0.610229 23.3898 0 22.637 0H1.36298ZM1.36298 8.09613C0.610229 8.09613 0 8.70636 0 9.45911V9.45911C0 10.2119 0.610229 10.8221 1.36298 10.8221H22.637C23.3898 10.8221 24 10.2119 24 9.45911V9.45911C24 8.70636 23.3898 8.09613 22.637 8.09613H1.36298ZM1.36298 16.274C0.610229 16.274 0 16.8843 0 17.637V17.637C0 18.3898 0.610229 19 1.36298 19H22.637C23.3898 19 24 18.3898 24 17.637V17.637C24 16.8843 23.3898 16.274 22.637 16.274H1.36298Z" fill="black"/>
</svg>
